<?xml version="1.0" encoding="UTF-8"?>
<svg xmlns="http://www.w3.org/2000/svg" version="1.1" viewBox="0 0 162 168">
  <!-- Generator: Adobe Illustrator 29.4.0, SVG Export Plug-In . SVG Version: 2.1.0 Build 152)  -->
  <defs>
    <style>
      .st0, .st1 {
        fill-rule: evenodd;
      }

      .st0, .st2 {
        fill: #fff;
      }

      .st3 {
        fill: none;
        stroke-width: 2px;
      }

      .st3, .st4 {
        stroke: #000;
      }

      .st4 {
        stroke-miterlimit: 4;
        stroke-width: 1px;
      }
    </style>
  </defs>
  <g id="Layer_2">
    <circle class="st2" cx="81" cy="84.3" r="80.7"/>
  </g>
  <g id="Layer_1">
    <g>
      <path class="st1" d="M56,28.2c5.7-.4,7.4,3,10.5,5,7.3-2.1,15.9-3,24.1-4.3-.5,14.3-22.6,14.8-12.8,30.5,11.7-3.2,20-9.6,36.2-8.5-5.2,10-19.7,11.2-24.1,22-2.2-1.3-4.2-2.7-6-4.3-5.5,1.2-4,9-4.5,14.9-3.6,2.7-5.1,7.5-7.5,11.4.6,4,7.8,5.4,6,9.2-3.1,3.2-12.5.5-18.1,1.4,3.9-9.5,7.6-19.5-6.8-19.2-.4-2.2,1.4-2.5.8-5-1.3-1.3-2.5.6-5.3,0-.8-2.5-2-4.8-3-7.1,1.1-2.6,4.8-2.6,7.5-3.6.5-8.3,2.6-18.6-3.8-22,2.3,0,2.9-1.5,4.5-2.1-6.7-4.3,3.2-6.5,5.3-10.7,0-3.6-2.7-4.6-3-7.8ZM62.8,35.3c1.6-1.7-1.7-3.1-3-4.3.3,2.1,1.3,3.5,3,4.3ZM86.9,33.2c0-1,.4-1.6.8-2.1h-2.3c0,1.2.6,1.8,1.5,2.1ZM70.3,38.9c2.4-.8,6.1-.4,6-3.6-4.1-.8-4.4,2-6,3.6ZM59.8,48.8c3.5-.5,5.8.2,5.3,3.6,2.9-.9,4.6-2.7,5.3-5.7-2.5-.6-3.3,3.9-4.5,2.1-.4-1.2.9-4.2-.8-4.3-.7,1-1.1,2.3-3,2.1-1.1-2,2.3-3.9-.8-3.6.2,2.6-.8,3.9-1.5,5.7ZM111,53.1h1.5v-1.4h-1.5v1.4ZM100.5,53.1c-.4,3,1.3,4,1.5,6.4,3-1.6,7.2-2.2,6.8-7.1-3.4-.3-5.6.4-8.3.7ZM68.8,65.8c9.4,1.3,21.7-6.4,30.1-10.7-9.5,1.2-21,6.7-30.1,10.7ZM65.1,64.4c2.2,4,8.9,7.4,3,11.4-3.2-3.8-4.5-9.5-9-12.1,3.2,4.8,5,10.9,10.5,13.5.4-2.7,3.3-3.1,4.5-5-2.6-2.3-6.2-4.1-6.8-7.8-.5-3,3.7-5.4.8-7.1-1.1,2.2-2.5,4.3-3,7.1ZM92.9,61.6c2.1,1.1,7.7.5,6.8-3.6-2.3,1.2-6.1.8-6.8,3.6ZM89.2,64.4c0-1,.4-1.6.8-2.1h-3c-.1,1.5.6,2.3,2.3,2.1ZM84.7,66.5c2,.7,2.5,2.8,4.5,3.6.4-2.5,6.1-5.1,2.3-7.1-.5,4.4-3.7,2.2-6.8,3.6ZM73.4,70.1c3.9-.8,8.8-.7,9-5-3,1.7-8,1.4-9,5ZM48.5,75.8c5.3-.2,7.8-3.1,12.8-3.6-1.8-4.2-11.3.6-12.8,3.6ZM49.3,78.6c4.1,1.1,8.5-3.2,13.6-3.6-1.5-3.7-10.8,1.5-13.6,3.6ZM73.4,102.1c-3.1.6-9.3-1.6-9,2.1,3.2-.8,7.2-.8,11.3-.7-.3-1.9-3.1-5.1-4.5-3.6,1.1.4,1.8,1.1,2.3,2.1Z"/>
      <path class="st0" d="M59.8,31c1.3,1.1,4.6,2.5,3,4.3-1.7-.8-2.7-2.2-3-4.3Z"/>
      <path class="st0" d="M85.4,31h2.3c-.4.6-.8,1.2-.8,2.1-.9-.3-1.5-.9-1.5-2.1Z"/>
      <path class="st0" d="M76.4,35.3c.1,3.2-3.6,2.7-6,3.6,1.6-1.6,1.9-4.4,6-3.6Z"/>
      <path class="st0" d="M61.3,43.1c3.1-.3-.3,1.5.8,3.6,1.9.1,2.4-1.1,3-2.1,1.7,0,.3,3,.8,4.3,1.3,1.8,2-2.8,4.5-2.1-.6,2.9-2.4,4.8-5.3,5.7.5-3.3-1.8-4-5.3-3.6.7-1.7,1.8-3.1,1.5-5.7Z"/>
      <path class="st0" d="M111,51.6h1.5v1.4h-1.5v-1.4Z"/>
      <path class="st0" d="M108.8,52.3c.5,4.9-3.7,5.5-6.8,7.1-.2-2.4-1.9-3.4-1.5-6.4,2.6-.3,4.9-1.1,8.3-.7Z"/>
      <path class="st0" d="M99,55.2c-8.5,4.2-20.7,12-30.1,10.7,9.2-3.9,20.6-9.4,30.1-10.7Z"/>
      <path class="st0" d="M68.1,57.3c2.9,1.7-1.2,4.1-.8,7.1.6,3.7,4.1,5.5,6.8,7.8-1.3,1.9-4.1,2.3-4.5,5-5.5-2.6-7.3-8.7-10.5-13.5,4.5,2.6,5.8,8.2,9,12.1,5.8-3.9-.8-7.4-3-11.4.5-2.8,1.9-4.9,3-7.1Z"/>
      <path class="st0" d="M99.7,58c.9,4-4.6,4.7-6.8,3.6.6-2.7,4.5-2.4,6.8-3.6Z"/>
      <path class="st0" d="M86.9,62.3h3c-.4.6-.8,1.2-.8,2.1-1.6.1-2.4-.6-2.3-2.1Z"/>
      <path class="st0" d="M91.4,63c3.8,2-1.9,4.6-2.3,7.1-2-.7-2.5-2.8-4.5-3.6,3.1-1.3,6.3.9,6.8-3.6Z"/>
      <path class="st0" d="M82.4,65.1c-.3,4.2-5.1,4.1-9,5,1-3.5,6-3.3,9-5Z"/>
      <path class="st0" d="M61.3,72.2c-5,.5-7.5,3.4-12.8,3.6,1.5-3,11-7.7,12.8-3.6Z"/>
      <path class="st1" d="M101.2,72.2c3,2.5,1.5,12.6.8,16.3-8.6-.2-13.3-4.1-21.1-5v-5.7c7.9-.9,17.4-.1,20.3-5.7ZM100.5,84.3c-.8-2.4,1.7-7.7-1.5-7.8-.8,2.6-3.3,7.6,1.5,7.8Z"/>
      <path class="st0" d="M62.8,75.1c-5,.4-9.4,4.7-13.6,3.6,2.7-2,12.1-7.2,13.6-3.6Z"/>
      <path class="st0" d="M99,76.5c3.2,0,.7,5.4,1.5,7.8-4.8-.2-2.3-5.2-1.5-7.8Z"/>
      <path class="st0" d="M71.1,99.9c1.5-1.6,4.2,1.7,4.5,3.6-4.1-.1-8.1,0-11.3.7-.2-3.8,5.9-1.5,9-2.1-.4-1-1.2-1.7-2.3-2.1Z"/>
      <path class="st1" d="M43.2,115.6h-6c0-1.1.4-2.7-.8-2.8-.6,5.8,11.3,8.4,6.8,16.3-2.5,2.6-8.7,2.6-12.1.7-.6-1.8-1-3.8-.8-6.4h5.3c0,1.7-.1,3.4.8,4.3,4.8-6.4-11.4-7.6-6-17,4.2-3.2,14.3-3,12.8,5Z"/>
      <path class="st1" d="M45.5,109.2h6v6.4c1.7-1.2,1.8-4,2.3-6.4h6c-4,6.9-2.4,13.9,0,21.3h-6c-.4-2.2-.6-4.6-1.5-6.4-1.7.8-.3,4.5-.8,6.4h-6v-21.3Z"/>
      <path class="st1" d="M61.3,109.2h6v17.8c3.4-3.2.6-12.3,1.5-17.8h6v19.2c-2.2,3.4-9.9,3.8-12.8.7-1.4-5.5-.5-13.3-.8-19.9Z"/>
      <path class="st1" d="M77.1,109.2h6c.5,5.7-1,13.3.8,17.8,3.4-3.2.6-12.3,1.5-17.8h6c-.4,6.9,1.2,15.8-1.5,20.6-3.2,1.8-8.1,1.8-11.3,0-3-4.6-.7-16-1.5-20.6Z"/>
      <path class="st1" d="M93.7,109.2c3.9.1,8.5-.4,11.3.7,2.1,2.1,1.9,8.3.8,11.4-1.8.4-3.4,1-6,.7v8.5h-6v-21.3ZM101.2,118.4c-.2-2.1.8-5.5-1.5-5.7.6,1.8-1.5,6.1,1.5,5.7Z"/>
      <path class="st1" d="M108.8,109.2c3.9.1,8.5-.4,11.3.7,2,1.9,1.5,6.2,1.5,9.9-1.7,1.3-3.1,2.8-6.8,2.1v8.5h-6s0-21.3,0-21.3ZM115.5,118.4c1-1,1.5-5.6-.8-5.7-.7.7-.3,4.5.8,5.7Z"/>
      <path class="st1" d="M123.1,109.2h6v22h-6v-22Z"/>
      <path class="st0" d="M99.7,112.7c2.3.2,1.3,3.5,1.5,5.7-3,.4-.9-3.9-1.5-5.7Z"/>
      <path class="st0" d="M114.8,112.7c2.3,0,1.8,4.6.8,5.7-1.1-1.2-1.4-5-.8-5.7Z"/>
    </g>
    <path d="M52.8,41.5s-1.9,2-3,2.3c-1.1.2,2.9.9,3,1.2.1.3,0-3.5,0-3.5Z"/>
    <polyline points="52.4 45.6 50 43.9 52.4 43.9"/>
    <path d="M49.8,43.7s8.7-6.6,9.2-7.7-1.4,7.2-1.4,7.2l-7.8.5h0Z"/>
    <path d="M81.7,37s4.1,3.6,2.7,4.7c-1.4,1.2-4.4,2.3-7.5,5.8-3.1,3.5,4.8-10.5,4.8-10.5h0Z"/>
    <path d="M88.4,30.7c-2.6,0-4.5.3-4.5.3l.6,2,1.3.8,1.6-.6,1-2.4h0Z"/>
    <path class="st2" d="M89.8,30l-4.8,3s1.9,1.2,2.6,1c.7-.2,2.2-3.8,2.2-3.8"/>
    <polygon class="st4" points="46.5 73.8 61.2 69.1 63.5 75.5 48.8 80.2 46.5 73.8"/>
    <polygon points="68.6 65.2 98.5 52.7 100.3 56.6 70.4 69.1 68.6 65.2"/>
    <polygon points="72.4 69.1 82.2 63.4 84.2 66.4 74.4 72.1 72.4 69.1"/>
    <rect x="92.1" y="56.9" width="8.2" height="5.2"/>
    <rect x="85.8" y="61.7" width="4.5" height="3.5"/>
    <rect x="110.8" y="51.2" width="1.7" height="1.9"/>
    <polygon class="st2" points="47.1 74.3 62.6 68.7 63.5 70.9 48 76.5 47.1 74.3"/>
    <polygon class="st2" points="48.7 77.9 65.1 72 66 74.2 49.6 80.1 48.7 77.9"/>
    <path class="st2" d="M109.5,52s.2,1.7.1,2.3c0,.5,2.2-1.8,2.7-2.4"/>
    <polygon class="st2" points="100.6 58.7 83.1 65.1 83 65.1 70.6 69.6 71.5 71.7 101.5 60.9 100.6 58.7"/>
    <polygon class="st2" points="68.1 66.7 99.1 55.5 100 57.7 69 68.9 68.1 66.7"/>
    <path class="st3" d="M90.2,72.3l-8.1-6.8s5.2,2,7.8,0,1.9-2.4,1.9-2.4c0,0,2.5,1.9,2.3,2.4s-3.9,6.8-3.9,6.8h0Z"/>
    <polygon points="90.9 63.7 91.6 62.2 92.9 63.1 90.9 63.7"/>
    <path class="st2" d="M82.2,66.7c0,0,1.1-1.1,1-1.5,0-.4-.2,0-.2,0l-1.1.4-.4.5.7.7h0Z"/>
    <polygon points="82.5 65.1 83.3 64.8 83.3 65 82.6 65.2 82.5 65.1"/>
  </g>
</svg>